<svg xmlns="http://www.w3.org/2000/svg" xmlns:xlink="http://www.w3.org/1999/xlink" viewBox="0 0 1920 234.11"><defs><style>.cls-1{fill:url(#linear-gradient);}.cls-2{fill:#fff;}</style><linearGradient id="linear-gradient" x1="965.82" y1="1412.2" x2="956.29" y2="945.58" gradientTransform="matrix(1, 0, 0, -1, 0, 1235.18)" gradientUnits="userSpaceOnUse"><stop offset="0" stop-color="#fff"/><stop offset="0.99" stop-color="#fff" stop-opacity="0"/></linearGradient></defs><g id="Layer_2" data-name="Layer 2"><g id="Layer_1-2" data-name="Layer 1"><path class="cls-1" d="M1649.29,143.39c-88.73-1.73-137.09-6.13-261.71-83.87C1256.86-22,1166.29,29.21,1166.29,29.21s-8.62,3.79-56.59,30.31c-11.89,6.58-103.22,50.65-149.7,57.6-33.88,5.06-92.77,31.67-205.94,2.37S606.71,92.36,534,118.64s-234.76,54.73-265.82,58.9C220.41,183.94,121.65,220.16,0,121.08v44.86C121.65,265,220.41,228.8,268.18,222.4c31.06-4.17,193.11-32.62,265.82-58.9s106.89-28.45,220.06.85S926.12,167,960,162c46.48-6.95,137.81-51,149.7-57.6,48-26.52,56.59-30.31,56.59-30.31s90.57-51.24,221.29,30.31c124.62,77.74,173,82.14,261.71,83.87,98.37,1.86,270.71-93,270.71-93V50.39S1747.66,145.25,1649.29,143.39Z"/><path class="cls-2" d="M0,121.08c121.65,99.08,220.41,62.86,268.18,56.46,31.06-4.17,193.11-32.62,265.82-58.9s106.89-28.45,220.06.85,172.06,2.69,205.94-2.37c46.48-7,137.81-51,149.7-57.6,48-26.52,56.59-30.31,56.59-30.31S1256.86-22,1387.58,59.52c124.62,77.74,173,82.14,261.71,83.87,98.37,1.86,270.71-93,270.71-93V0H0Z"/></g></g></svg>