<svg xmlns="http://www.w3.org/2000/svg" viewBox="0 0 459.28 453.57"><defs><style>.cls-1{fill:#d5d7e0;}.cls-2{fill:#aac6ef;}.cls-3{fill:#fff;}.cls-4{fill:#dce7f8;}.cls-5{fill:#300c0b;}.cls-6{fill:#d3756c;}.cls-7{fill:#e5b57c;}.cls-8{fill:#6f1b73;}.cls-9{fill:#f0c6b2;}.cls-10{fill:#dcac9b;}.cls-11{fill:#422e2d;}.cls-12{fill:#601865;}.cls-13{fill:#72c2a9;}.cls-14{fill:#d17975;}.cls-15{fill:#ab6360;}</style></defs><g id="Layer_2" data-name="Layer 2"><g id="OBJECTS"><path class="cls-1" d="M257.4,5.59A24,24,0,0,1,267,24.73V269.08a24,24,0,0,1-24,24H143a24,24,0,0,1-6-.78,23.85,23.85,0,0,0,14.44,4.86h99.94a24,24,0,0,0,24-24V28.81A24,24,0,0,0,257.4,5.59Z"/><path class="cls-2" d="M243,293.81H143a24.76,24.76,0,0,1-24.73-24.73V24.73A24.75,24.75,0,0,1,143,0H243a24.75,24.75,0,0,1,24.73,24.73V269.08A24.76,24.76,0,0,1,243,293.81ZM143,1.45a23.31,23.31,0,0,0-23.28,23.28V269.08A23.3,23.3,0,0,0,143,292.35H243a23.3,23.3,0,0,0,23.28-23.27V24.73A23.31,23.31,0,0,0,243,1.45Z"/><path class="cls-1" d="M242.91,259.81H143.06a12.64,12.64,0,0,1-12.63-12.63V33.69a12.65,12.65,0,0,1,12.63-12.63h99.85a12.64,12.64,0,0,1,12.62,12.63V247.18A12.63,12.63,0,0,1,242.91,259.81ZM143.06,22.52a11.18,11.18,0,0,0-11.17,11.17V247.18a11.19,11.19,0,0,0,11.17,11.18h99.85a11.19,11.19,0,0,0,11.17-11.18V33.69a11.18,11.18,0,0,0-11.17-11.17Z"/><rect class="cls-1" x="136.63" y="59.99" width="151.6" height="68.74"/><rect class="cls-3" x="144.21" y="51.32" width="151.6" height="68.74" rx="2.53"/><path class="cls-2" d="M288.46,120.78H151.57a8.08,8.08,0,0,1-8.08-8.08v-54a8.08,8.08,0,0,1,8.08-8.08H288.46a8.08,8.08,0,0,1,8.08,8.08v54A8.08,8.08,0,0,1,288.46,120.78ZM151.57,52.05a6.63,6.63,0,0,0-6.63,6.63v54a6.63,6.63,0,0,0,6.63,6.63H288.46a6.63,6.63,0,0,0,6.63-6.63v-54a6.63,6.63,0,0,0-6.63-6.63Z"/><rect class="cls-2" x="171.21" y="9.07" width="43.54" height="5.15" rx="0.89"/><rect class="cls-4" x="162.2" y="84.38" width="35.54" height="31.25"/><rect class="cls-4" x="200.74" y="84.38" width="35.54" height="31.25"/><rect class="cls-4" x="214.75" y="152.24" width="35.54" height="31.25"/><rect class="cls-4" x="175.22" y="152.24" width="35.54" height="31.25"/><rect class="cls-4" x="319.05" y="12.18" width="43.72" height="19.22"/><rect class="cls-4" x="370.47" y="12.18" width="43.72" height="19.22"/><path class="cls-2" d="M169.33,68v.26c0,1.53-.45,2.43-1.55,2.8v0c1.29.4,1.84,1.42,1.84,3.22v.47a3.12,3.12,0,0,1-3.45,3.48H163.1V64.52H166C168.17,64.52,169.33,65.73,169.33,68Zm-4.14-1.55v3.75h.64c1,0,1.42-.51,1.42-1.67v-.45c0-1.12-.42-1.63-1.32-1.63Zm0,5.67v4.22h.9c1,0,1.45-.53,1.45-1.68v-.77c0-1.22-.45-1.77-1.55-1.77Z"/><path class="cls-2" d="M178.79,67.8V75a3.36,3.36,0,1,1-6.71,0V67.8a3.36,3.36,0,1,1,6.71,0Zm-4.63,0V75c0,1,.45,1.57,1.27,1.57s1.28-.55,1.28-1.57V67.81c0-1-.45-1.56-1.28-1.56S174.16,66.79,174.16,67.81Z"/><path class="cls-2" d="M188.29,67.8V75a3.36,3.36,0,1,1-6.71,0V67.8a3.36,3.36,0,1,1,6.71,0Zm-4.63,0V75c0,1,.45,1.57,1.27,1.57s1.28-.55,1.28-1.57V67.81c0-1-.45-1.56-1.28-1.56S183.66,66.79,183.66,67.81Z"/><path class="cls-2" d="M195.65,70l2.89,8.29h-2.22l-2-6-.9,1.77v4.24H191.3V64.52h2.08v5.73h0l2.88-5.73h2.18Z"/><path class="cls-2" d="M202.84,78.26h-2.08V64.52h2.08Z"/><path class="cls-2" d="M212.83,78.26h-2l-2.73-9.11h0v9.11h-2V64.52h2.32l2.45,8.18h0V64.52h2Z"/><path class="cls-2" d="M222.35,67.62v.94l-2,.1v-.83c0-1.09-.41-1.58-1.22-1.58s-1.21.49-1.21,1.39v7.5c0,.9.39,1.39,1.19,1.39s1.2-.49,1.2-1.59V72.59h-1.18V70.66h3.22v4.5a3.26,3.26,0,1,1-6.51,0V67.62a3.26,3.26,0,1,1,6.51,0Z"/><path class="cls-2" d="M288.55,66.83a9.2,9.2,0,1,0-18.18,2,8.94,8.94,0,0,0,.57,1.7l.05.15,7.65,17.79a.77.77,0,0,0,1.42,0l7.71-17.93,0,.07a9.84,9.84,0,0,0,.61-1.78A9.22,9.22,0,0,0,288.55,66.83Zm-9.2,9.2a8.65,8.65,0,0,0,.89-.08A5.26,5.26,0,0,1,279.35,76Z"/><path class="cls-3" d="M284,66.61A4.62,4.62,0,1,1,279.35,62,4.61,4.61,0,0,1,284,66.61Z"/><circle class="cls-2" cx="194.92" cy="277.15" r="11.51" transform="translate(-138.88 219.01) rotate(-45)"/><circle class="cls-1" cx="192.98" cy="275.11" r="11.51"/><ellipse class="cls-4" cx="77.13" cy="425.9" rx="77.13" ry="18.95"/><path class="cls-5" d="M88.59,45.92a3.22,3.22,0,0,0-.26-3.76c-.3-.31-.68-.53-1-.82a10.5,10.5,0,0,1-1.11-1.45,4.72,4.72,0,0,0-3-1.88c-1.21-.17-6.69.83-7.92.77a4.28,4.28,0,0,0-4.21,2.75c-.14.44-1,5.69-.6,6.57a2,2,0,0,1,.27.92c0,.55,3.61,6.71,4.45,6.36l8.41-3.51a4.7,4.7,0,0,0,1.82-1.13c.69-.8.09-1.71.63-2.44C86.73,47.38,88,47,88.59,45.92Z"/><path class="cls-1" d="M62.59,224.52C42,224.52,20,220.8,20,213.9S42,203.28,62.59,203.28s42.58,3.72,42.58,10.62S83.23,224.52,62.59,224.52Zm0-19.79c-24.23,0-41.12,4.83-41.12,9.17s16.89,9.16,41.12,9.16,41.12-4.83,41.12-9.16S86.83,204.73,62.59,204.73Z"/><path class="cls-1" d="M96.24,434H85.4V244.63l10.84-2.82Zm-9.39-1.45h7.93V243.69l-7.93,2.07Z"/><path class="cls-1" d="M39.78,434H29V241.81l10.83,2.82Zm-9.38-1.45h7.93V245.76l-7.93-2.07Z"/><path class="cls-1" d="M62.59,247.16C42,247.16,20,243.44,20,236.54S42,225.92,62.59,225.92s42.58,3.72,42.58,10.62S83.23,247.16,62.59,247.16Zm0-19.79c-24.23,0-41.12,4.83-41.12,9.17s16.89,9.17,41.12,9.17,41.12-4.83,41.12-9.17S86.83,227.37,62.59,227.37Z"/><path class="cls-1" d="M62.59,376.22C42,376.22,20,372.5,20,365.6S42,355,62.59,355s42.58,3.73,42.58,10.62S83.23,376.22,62.59,376.22Zm0-19.78c-24.23,0-41.12,4.83-41.12,9.16s16.89,9.17,41.12,9.17,41.12-4.83,41.12-9.17S86.83,356.44,62.59,356.44Z"/><path class="cls-6" d="M159.92,244.9c-17.67-49.7-43.87-74.94-45.31-86.24a1.72,1.72,0,0,0-1.74-1.5l-73.55,1.61a1.72,1.72,0,0,0-1.68,1.64c-.49,11.39-3.37,81.24-2.35,132.58,1,51,6.21,109.77,7.15,120a1.71,1.71,0,0,0,1.71,1.56h20a1.71,1.71,0,0,0,1.71-1.62s7-84.81,15.5-147.29c1.94-14.26,3.95-27.36,6-38,.34-1.76,11.64-8.85,29.65,23.2,5.68,10.11,28.22,7.88,38.53,12.36C157.09,258.44,161.69,249.87,159.92,244.9Z"/><path class="cls-7" d="M99,68.11s15.77-1.55,24.9,25.19c6.81,19.94,20.14,36.45,27.07,36.45,12.69,0,24.44-17.85,24.44-17.85l9.5,5.25s-14,35.08-39.61,35.08c-22.12,0-29.51-11.36-29.51-11.36Z"/><path class="cls-7" d="M52.55,68.11H99s18,34.93,18,83.63a9.36,9.36,0,0,1-5,8.26c-12,6.32-43.75,19.66-73.22,2a7.53,7.53,0,0,1-3.67-6.65C35.55,139.73,38,85.3,52.55,68.11Z"/><path class="cls-8" d="M78.85,75.16c6.34,3.5,9.46-7,9.46-7H80.22L78,69.3S70.09,70.33,78.85,75.16Z"/><path class="cls-9" d="M83.81,44.59a2.2,2.2,0,0,1,1.83,2.32,7,7,0,0,0,.21,2.86c.56,1.26-.48,8.47-1.8,9.87-.68.72-3.71.52-6.38-2.28s-2.48-8.71-2.48-8.71S74.7,43.13,83.81,44.59Z"/><path class="cls-9" d="M85,67.51c-.09-3.39-2.67-21.46-2.67-21.46a27.68,27.68,0,0,0-6.3,3.59,8.11,8.11,0,0,0-.72-2.16s-1-1.79-1.89-1.43-1.78,1.78,0,3.38l1.12,1.89h0a2.69,2.69,0,0,0-.32.85s-2.31,14.54-3,15.87c0,0,5.92,8,9.37,7.4S85.11,70.89,85,67.51Z"/><path class="cls-10" d="M84.81,64.9c-.15-1.42-.37-3.22-.61-5.13l-.15-.13s-3.86,2.75-6.38-2.28C77.67,57.36,79.86,65.49,84.81,64.9Z"/><path class="cls-8" d="M110.91,111.22c1,6.27,4.87,18.42,4.9,18.53a211.4,211.4,0,0,0-6.21-32.59S109.94,104.93,110.91,111.22Z"/><path class="cls-11" d="M47.2,414.55s-14.54,13.19-19.9,14.51a2.36,2.36,0,0,0-1.65,2.37c0,1.15.64,2.41,3.1,2.83,4.93.84,32.2-4.34,32.2-4.34s-.24-4.76-.46-9.79a23.61,23.61,0,0,0-1.22-5.58Z"/><path class="cls-11" d="M110,363.15s1.27,19.59,4.2,24.27a2.34,2.34,0,0,1-.45,2.85c-.81.82-2.14,1.29-4.2-.12-4.13-2.82-20.12-25.51-20.12-25.51s3.48-3.26,7.14-6.72a23.68,23.68,0,0,1,4.76-3.16Z"/><path class="cls-9" d="M175.81,112.44s2.85-12.61,6.58-11.16,8.35,3.16,7.75,6.43-7.24,9-7.24,9S177.15,115.23,175.81,112.44Z"/><path class="cls-9" d="M19.59,193.85S24,205,20.12,206.12s-8.52,2.66-10.06-.29.9-12.49.9-12.49S16.82,192.49,19.59,193.85Z"/><rect class="cls-1" x="20.02" y="213.9" width="1.45" height="23.43"/><path class="cls-6" d="M117,250.82l-22.6,104a1.73,1.73,0,0,0,1.1,2.09l17.63,6a1.72,1.72,0,0,0,2.12-.93c4-8.9,27-59.45,44.11-109.79C153.41,231.42,114.47,233.3,117,250.82Z"/><path class="cls-7" d="M59.75,71.74a7.89,7.89,0,0,0-10.43-2.66C17,87,3.13,131,9.76,193.85h11s10.78-65.15,40-102.45C66.66,83.84,62.45,76,59.75,71.74Z"/><path class="cls-8" d="M40.28,135.53c2.7-7,10.59-29.42,10.59-29.42L36,137c-.54,7.82-.78,14.39-.88,18.39A7.53,7.53,0,0,0,38.82,162l-1.18-1.59S37.57,142.56,40.28,135.53Z"/><path class="cls-8" d="M85.4,219,81,268.4c.12-.92.25-1.84.37-2.76,1.94-14.26,3.95-27.36,6-38,.34-1.76,11.64-8.85,29.65,23.2C114.09,228.9,88.23,218.46,85.4,219Z"/><path class="cls-2" d="M363.5,102H317.41V4.87H363.5Zm-44.63-1.46h43.18V6.32H318.87Z"/><path class="cls-2" d="M415.37,102H369.28V4.87h46.09Zm-44.63-1.46h43.18V6.32H370.74Z"/><rect class="cls-2" x="214.75" y="194.05" width="34.23" height="1.45"/><rect class="cls-2" x="214.75" y="206.53" width="34.23" height="1.45"/><rect class="cls-2" x="214.75" y="219" width="34.23" height="1.45"/><path class="cls-4" d="M322.67,35v1.46h30.55V35Zm0,9.44h30.55V43H322.67Zm0,8h30.55V51H322.67Zm0,8h30.55V59H322.67Zm0,8h30.55V67H322.67Zm0,8h30.55V75H322.67Zm0,8h30.55V83H322.67Zm0,8h30.55V90.94H322.67Z"/><path class="cls-4" d="M374.5,35v1.46H405V35Zm0,9.44H405V43H374.5Zm0,8H405V51H374.5Zm0,8H405V59H374.5Zm0,8H405V67H374.5Zm0,8H405V75H374.5Zm0,8H405V83H374.5Zm0,8H405V90.94H374.5Z"/><ellipse class="cls-4" cx="280.47" cy="435.99" rx="121.32" ry="17.58"/><path class="cls-8" d="M334.07,129.78a12.32,12.32,0,0,1,8.6-11.93,13.34,13.34,0,0,1,9.16.64,21.66,21.66,0,0,0,11.07,1.66,14,14,0,0,1,6.27.68,14.19,14.19,0,0,1,8.61,8.77c1.36,4.08.77,8.55,1.65,12.76a18.74,18.74,0,0,0,5.31,9.6c4.68,4.5,11.37,6.24,17.83,6.81s13,.16,19.42,1.15,12.95,3.64,16.69,8.94A19.92,19.92,0,0,1,442,181a22.53,22.53,0,0,1-3.56,11.44c-4.15,6.31-11.55,9.93-19,11-10.11,1.43-20.45-1.3-30.14-3.57a29.3,29.3,0,0,1-17.92-12.13c-5.89-9-6.19-19-9.5-29.21-1.24-3.84-1.27-9.27-3.47-12.66-1.56-2.4-3.43-4.84-6.13-5.77-2.39-.83-4.44-.06-6.81.14a10.08,10.08,0,0,1-5.16-1.22A11.26,11.26,0,0,1,334.07,129.78Z"/><polygon class="cls-1" points="399.18 427.13 344.5 320.57 353.27 313.95 390.55 386.58 389.25 387.25 352.77 316.15 346.35 321 400.47 426.47 399.18 427.13"/><path class="cls-1" d="M326.8,433.8l-9.64-4.95,59-114.9,8.77,6.62-.27.55Zm-7.68-5.58,7.05,3.62L383.05,321l-6.42-4.85Z"/><path class="cls-11" d="M189.06,422s-14.76,13-20.14,14.18a2.35,2.35,0,0,0-1.69,2.34c0,1.15.6,2.42,3.06,2.88,4.91.92,32.26-3.81,32.26-3.81s-.16-4.76-.3-9.8a23.62,23.62,0,0,0-1.13-5.6Z"/><path class="cls-11" d="M309,418.42s-14.76,12.95-20.14,14.18a2.35,2.35,0,0,0-1.69,2.34c0,1.15.6,2.42,3.06,2.88,4.91.92,32.26-3.81,32.26-3.81s-.16-4.76-.3-9.8a23.48,23.48,0,0,0-1.13-5.59Z"/><path class="cls-3" d="M391.29,211.47a46.1,46.1,0,0,0-11,7.3c-5.29,4.47-10.24,9.46-13.78,15.41-6.3,10.58-8.18,24.19-17.62,32.1-9.82,8.22-27.42,6.48-33.69,17.65-11.7,20.84-5.12,37.11,13.16,37.11,25.63,0,51.29,2.74,76.81.31,5.08-.49,10.28-1.17,14.76-3.62,3.81-2.08,6.86-5.33,9.56-8.73,17.69-22.35,19.29-89.43-7.29-97.07C412.2,209.05,401.19,207.12,391.29,211.47Z"/><path class="cls-1" d="M355,322.78c-8.72-.32-17.74-.65-26.59-.65-8,0-14.26-3.09-17.55-8.7-4.35-7.44-3.1-18.39,3.44-30,3.79-6.74,11.45-9,18.87-11.25,5.42-1.63,11-3.3,15.07-6.69,5.79-4.87,8.62-11.9,11.61-19.35a89.82,89.82,0,0,1,5.77-12.48c3.14-5.27,7.59-10.25,14-15.68a47.32,47.32,0,0,1,11.23-7.47h0c10.62-4.66,22.51-2.23,31.68.41,7.71,2.22,13.69,9.35,17.31,20.63,7.77,24.2,3.17,62.19-9.47,78.16-2.35,3-5.6,6.67-9.88,9-4.69,2.56-10.07,3.25-15.19,3.74-7.87.75-15.8,1-23.72,1C372.65,323.44,363.74,323.11,355,322.78Zm36.75-110.31h0A45.21,45.21,0,0,0,381,219.6c-6.23,5.27-10.54,10.08-13.55,15.13a88,88,0,0,0-5.61,12.18c-3,7.37-6,15-12.24,20.2-4.39,3.69-10.22,5.43-15.85,7.11-7.32,2.19-14.23,4.26-17.59,10.24-6.15,11-7.41,21.11-3.46,27.87,2.88,4.91,8.44,7.62,15.67,7.62,8.9,0,17.93.33,26.67.66,16.44.6,33.43,1.24,50-.35,4.89-.47,10-1.12,14.35-3.49,3.94-2.15,7-5.65,9.22-8.45,12.27-15.5,16.7-52.51,9.11-76.15-2.36-7.36-7-16.66-15.84-19.19a64.83,64.83,0,0,0-17.64-3A30.87,30.87,0,0,0,391.73,212.47Z"/><path class="cls-12" d="M318.69,253.1s-68.87,21-90.78,48.3-44.27,120.73-44.27,120.73h22.58S252.57,354.76,267,326.3l20.87-4.78,49.23-57.83Z"/><path class="cls-8" d="M407.39,254.6s2.52,24.44.28,38.75-25.49,23.7-40.24,23.7-54.11-4.92-54.11-4.92,17.44,68,11.18,107.32l-28.68,2.68S272.18,338.51,274.42,313s29.69-34.89,41.14-41.14C344.39,256.13,408.69,250.81,407.39,254.6Z"/><path class="cls-3" d="M367.47,311.31A63.21,63.21,0,0,0,325.32,307c-2.74.68-13.43,2.66-12.6,5.35.38,1.22,4.76,1.76,5.88,2.38,11.3,6.27,66,7.6,91.58,1.66,13.9-3.23,14.24-20.76,16.94-34.78.95-4.95,1.54-10.15.07-15s-5.45-9.19-10.46-9.7c-5.76-.59-13.25,3.44-18.53,5.71a49.52,49.52,0,0,0-16.33,12C372.75,284.48,367.18,297.8,367.47,311.31Z"/><path class="cls-13" d="M367.23,166a8.41,8.41,0,0,0-2.86-11.1c-4.49-2.87-11.55-5.07-20.94-1-12.88,5.57-35.76,24.47-35.76,24.47s-25.54,18-20.19,23.39c3.54,3.6,6.35,7.77,11.34,7.06C314.5,206.62,348.27,200.5,367.23,166Z"/><path class="cls-13" d="M349.25,152.06s-23,15.25-26.59,28.84-4.52,73.56-4.52,73.56,48.13,34.23,89.25.14c0,0,.16,1.85-.44-6.42-.52-7.39-3.41-50.58-4-59.74a8.14,8.14,0,0,0-1-3.37C397.92,177.64,379.78,148,349.25,152.06Z"/><path class="cls-8" d="M322.8,201.29c0-.2,0-.37,0-.55l1.31-23.69c-3.34,5.18-3.65,20.37-3.78,22.41-.76,10.18-1.29,22.37-1.64,32.69,0,0,3.57-23.19,4.07-30.82h0Z"/><path class="cls-8" d="M406.37,239.71l-61.82-25S362,241.62,380.07,248c12.05,4.24,21.94,5.65,27.25,5.44-.13-.8-.21-3.14-.37-5.25C406.85,246.67,406.64,243.63,406.37,239.71Z"/><path class="cls-8" d="M370.63,186.62s5.65,25.39,13.05,33.83l-34.51-12.36,50.35,27.5Z"/><path class="cls-8" d="M363.15,152.54a40.61,40.61,0,0,0-8.22-.85c-3.65,5.59-8.72,14.58-4.82,16.13,5.73,2.29,14.81-6.07,15.73-8.48C366.53,157.53,364.3,154.12,363.15,152.54Z"/><path class="cls-14" d="M343.52,129.62s.7,4.4,0,6,.59,10.63,2.25,12.39c.85.89,4.66.65,8-2.87s3.12-10.93,3.12-10.93S357.6,126.28,343.52,129.62Z"/><path class="cls-14" d="M344.55,157.87c.11-4.25,3.36-26.94,3.36-26.94a35.29,35.29,0,0,1,7.91,4.51,10,10,0,0,1,.89-2.71s1.26-2.25,2.38-1.8,2.23,2.23,0,4.25l-1.4,2.37h0a3.31,3.31,0,0,1,.39,1.07s2.91,18.25,3.8,19.92c0,0-7.44,10.07-11.77,9.28S344.44,162.12,344.55,157.87Z"/><path class="cls-15" d="M344.82,154.6c.19-1.79.45-4,.76-6.44l.19-.16s4.84,3.44,8-2.87C353.78,145.13,351,155.33,344.82,154.6Z"/><rect class="cls-3" x="335.63" y="192.13" width="13.07" height="28.41" rx="0.76"/><path class="cls-13" d="M385.86,164.68A8.4,8.4,0,0,0,374.48,166c-3.45,4.06-6.59,10.75-3.85,20.61C374.4,200.14,390,225.38,390,225.38l-40.84-17.29-4.62,6.59s32.2,39.69,65.89,33.88A10.36,10.36,0,0,0,419,238.29C418.91,222.45,417.45,188.16,385.86,164.68Z"/><path class="cls-14" d="M341.56,199.84s-5.81,4.13-4.57,8.6,7.56,6.24,7.56,6.24l4.62-6.59S345.12,199.49,341.56,199.84Z"/><path class="cls-13" d="M303.08,181.8c-25.39,4-44.52-9.4-44.52-9.4l-3.73,6.86s17.38,26.37,42.72,29.64Z"/><path class="cls-8" d="M298.82,208.84a124.32,124.32,0,0,0,22.37-5.06l.24-1.44-1.07-2.88c-5,4.26-21.47,9.06-22.69,9.41A7.43,7.43,0,0,0,298.82,208.84Z"/><path class="cls-14" d="M258.57,172.38s-14.18-10.54-14.66-10.27c-2.95,1.69,6.52,9.55,7.19,10.91s-1.69,1.13-2.81,2,2.78,3.52,5.85,4.23S258.57,172.38,258.57,172.38Z"/><path class="cls-1" d="M459.21,328.23a3.63,3.63,0,0,0-2.41-3.44,5.13,5.13,0,0,0-4.19.34,11,11,0,0,0-3.15,2.55,16.51,16.51,0,0,1-2,2,6.75,6.75,0,0,1-6,1.62,5,5,0,0,0-3.89.63c-1.08.67-2.17,1.35-3.21,2.12a12.57,12.57,0,0,0-3.85,4.65,24.37,24.37,0,0,0-2,7.43,25.65,25.65,0,0,0,.08,6.89,14.57,14.57,0,0,1,.08,2.29,2,2,0,0,1-.69,1.52l0,0c.05-.38.13-.75.15-1.15a10.94,10.94,0,0,0-1.37-6.35c-1.38-2.28-3.29-2.73-5.24-1.26a8.82,8.82,0,0,0-2.15,2.52,14.73,14.73,0,0,1-1.29,1.87,1.67,1.67,0,0,1-2.24.48,2.86,2.86,0,0,1-1-2.78,8.75,8.75,0,0,1,1.64-4.18,21.11,21.11,0,0,1,2.3-2.5,22,22,0,0,1,5.12-3.23c4.28-2.21,5-3,7.06-8.18a12.18,12.18,0,0,0,.77-6.64,13.76,13.76,0,0,0-1.92-5.73c-1.35-1.93-3.39-1.7-4.45.5a10.45,10.45,0,0,0-.64,1.73,5.26,5.26,0,0,1-2.08,2.84c-.73.52-1.33.27-1.69-.69a4.24,4.24,0,0,1-.23-1.08,8.11,8.11,0,0,1,.72-4,14,14,0,0,1,3.55-5.15c.63-.56,1.29-1.1,1.93-1.65a19.54,19.54,0,0,0,5.83-10.11,13.52,13.52,0,0,0-.66-8.92c-.87-2-2.27-3-4.11-2.69a7.42,7.42,0,0,0-4.81,2.76,18,18,0,0,0-2.79,4.8,28,28,0,0,1-1.56,3.52,10.28,10.28,0,0,1-6.53,5.33,7.45,7.45,0,0,0-4.36,2.94c-1,1.41-2.06,2.82-3,4.31a19.47,19.47,0,0,0-2.84,7.67,32.73,32.73,0,0,0,.28,9.93,31,31,0,0,0,2.61,8.08,15.68,15.68,0,0,1,.93,2.65,2.83,2.83,0,0,1-.26,2.19,2.64,2.64,0,0,1-1.33-1.1c-.89-1.22-1.74-2.48-2.61-3.72a13.66,13.66,0,0,0-1.11-1.46c-1.13-1.19-2.22-1.17-3.3.09a10.43,10.43,0,0,0-2.46,5.72,16.45,16.45,0,0,0-.1,2.52A8.89,8.89,0,0,0,393,344.3c-1.05-.93-1.92-.29-1.91,1.4a11.38,11.38,0,0,0,.1,1.29,4.59,4.59,0,0,1-.31,2.35c-.22.53-.54.51-.92,0a3.36,3.36,0,0,1-.35-.65,7.7,7.7,0,0,1-.56-2.78,12.09,12.09,0,0,1,.46-4.22c.16-.52.34-1,.5-1.55a17.78,17.78,0,0,0,.39-8,12,12,0,0,0-2.3-5.67c-.84-1.1-1.69-1.39-2.46-.76a4.56,4.56,0,0,0-1.57,3,15.73,15.73,0,0,0-.19,3.8c0,.9.11,1.82.07,2.68a7.38,7.38,0,0,1-1.77,5.06,4.92,4.92,0,0,0-1.32,3c-.15,1.17-.31,2.34-.4,3.55a18.64,18.64,0,0,0,.42,5.7,30.79,30.79,0,0,0,2.35,6.41,24.83,24.83,0,0,0,3,4.66,11.61,11.61,0,0,1,1,1.5,2.71,2.71,0,0,1,.37,1.49,1.21,1.21,0,0,1-.85-.39c-.68-.58-1.34-1.2-2-1.8a7.4,7.4,0,0,0-.83-.69c-.78-.5-1.27-.22-1.48.86a10,10,0,0,0,.16,4.33,19,19,0,0,0,2.23,5.2,32.65,32.65,0,0,0,4.26,5.71c1.22,1.3,2.39,2.75,3.58,4.14a4.28,4.28,0,0,1,.26.42l-.05.11c-.44-.31-.88-.6-1.31-1-1.41-1.15-2.83-.4-3.07,1.71a7.58,7.58,0,0,0,1.1,5c.56.88,1.16,1.69,1.75,2.53a29.32,29.32,0,0,0,5.69,6.16h5.15c-.16-.23-.32-.48-.48-.7a29.27,29.27,0,0,1-3.89-7.32,30.72,30.72,0,0,1-1.46-4.75c-.18-1-.32-1.93-.46-2.9a9.41,9.41,0,0,0-1-3.31,25.66,25.66,0,0,0-1.68-2.52,10.56,10.56,0,0,1-1.84-4c-.26-1.06-.44-2.13-.63-3.2-.31-1.81-.57-3.62-.91-5.42a17.57,17.57,0,0,0-1.71-5,15.66,15.66,0,0,1-1.07-2.51,24.63,24.63,0,0,1-1.32-7.33c0-.7,0-1.38,0-2.08a43.54,43.54,0,0,1,.5-7.86c.23-1.61.36-3.3.54-5,0-.29.08-.57.14-1a3.55,3.55,0,0,1,.33,1.52,22.17,22.17,0,0,1-.3,4,57.86,57.86,0,0,0-.64,10,22.23,22.23,0,0,0,2.44,10.11,19.05,19.05,0,0,1,1.59,4.4c.47,1.95.74,3.91,1.05,5.87.15,1,.3,2,.53,3a9.24,9.24,0,0,0,1.57,3.53c.43.56.83,1.19,1.24,1.8.36,1,.74,2,1.1,3,.18.47.39.89.58,1.35s.12.64.17,1c.09.53.15,1.06.23,1.6a29.45,29.45,0,0,0,1.55,5.36,27,27,0,0,0,2.75,5.63c.61.93,1.22,1.84,1.85,2.72h3.13c0-.34.05-.69.1-1a.28.28,0,0,1,0-.09l.12.15c.25.35.52.65.78,1h5.84c-.41-1.16-.83-2.31-1.29-3.43a34.74,34.74,0,0,1-2.57-12.16,31.53,31.53,0,0,1,.32-7.14c.27-1.38.63-2.73,1-4.08a9.8,9.8,0,0,0,.31-4.95,32.42,32.42,0,0,0-1.52-4.42,12.17,12.17,0,0,1-.91-6.4c.2-1.54.54-3.06.88-4.57.57-2.56,1.24-5.08,1.75-7.65a18.48,18.48,0,0,0,0-7.66,17.15,17.15,0,0,1-.39-4,25.15,25.15,0,0,1,2.23-10.4c.43-.9.88-1.78,1.29-2.7a46.8,46.8,0,0,1,5.93-9.84c1.46-1.92,2.77-4,4.16-6,.24-.36.51-.68.87-1.16a3.5,3.5,0,0,1-.35,2.2,24.08,24.08,0,0,1-3.1,5A63.66,63.66,0,0,0,414,321.92a23.13,23.13,0,0,0-1.9,14.77,20.85,20.85,0,0,1,.15,6.78,74.27,74.27,0,0,1-1.8,8.33c-.34,1.4-.7,2.8-.9,4.22a10.32,10.32,0,0,0,.68,5.66c.55,1.28.95,2.66,1.45,4a9,9,0,0,1,.39,4.5c-.14.95-.39,1.88-.61,2.8-.18.76-.4,1.49-.59,2.24a30.68,30.68,0,0,0-.53,8,31.19,31.19,0,0,0,1.52,9.18q1.11,3.28,2.42,6.45H421c0-.55-.06-1.1-.1-1.65.29-.38.57-.76.86-1.13,0,.93.07,1.86.13,2.78h9c.9-.59,1.81-1.17,2.69-1.81a8.87,8.87,0,0,0,1.63-1.56,8.13,8.13,0,0,0,1.89-5.63c-.13-2.75-1.43-4-3.55-3.24a12.76,12.76,0,0,0-2.22,1.17c-.82.48-1.59,1.06-2.41,1.53s-1.48.26-1.87-.73a12.67,12.67,0,0,0,1.17-2.43,12.42,12.42,0,0,0,.76-4.39,6.35,6.35,0,0,1,4.25-2.41,17.53,17.53,0,0,0,4.23-1.18A8.48,8.48,0,0,0,442,373a8.88,8.88,0,0,0,.44-5.18c-.5-2.17-1.8-3.17-3.58-2.78a5.59,5.59,0,0,0-2.16,1.09,10.12,10.12,0,0,1-1.38.93,1.34,1.34,0,0,1-1.76-.43,2.44,2.44,0,0,1-.1-2.41,5.76,5.76,0,0,1,2.16-2.51,14.41,14.41,0,0,1,2.27-1,15.08,15.08,0,0,1,4.52-.57c3.67-.11,4.36-.43,7.08-3.54a8.56,8.56,0,0,0,2.08-4.62,11.61,11.61,0,0,0-.11-4.91c-.56-1.91-2.11-2.46-3.4-1.22a7.5,7.5,0,0,0-.86,1.06A3.36,3.36,0,0,1,445,348.2c-.66.12-1-.27-1.09-1.11a3.28,3.28,0,0,1,.08-.88,5.5,5.5,0,0,1,1.44-2.68,8.68,8.68,0,0,1,3.79-2.55c.6-.19,1.2-.35,1.8-.53a12.31,12.31,0,0,0,6.62-5.4A10.31,10.31,0,0,0,459.21,328.23ZM404,371.48c-.61-.71-1.25-1.39-1.83-2.14a4.58,4.58,0,0,0-2.06-1.56,8.69,8.69,0,0,0-1.87-3.38c-1.14-1.16-2.1-1-2.66.44a7.6,7.6,0,0,0-.42,2.17,12.37,12.37,0,0,1-.16,1.53c-.13.68-.53,1-.91.86a2.1,2.1,0,0,1-1.07-1.58,8.64,8.64,0,0,1-.2-3.13,20.09,20.09,0,0,1,.49-2.19,14.38,14.38,0,0,1,1.61-3.34,7.84,7.84,0,0,0,1.44-4.32,45.1,45.1,0,0,0,3.56,8c1.44,2.52,2.7,5.21,4,7.83a4,4,0,0,1,.21.72ZM420.78,376l-.15,0c-.29-.74-.61-1.47-.86-2.23a4,4,0,0,0-2.74-2.78,10.7,10.7,0,0,1,2.61-2.59c.46,2.3.77,4.64,1.14,7A4,4,0,0,1,420.78,376Zm30.38-42.14a14.71,14.71,0,0,1-3.41,2.56,39.4,39.4,0,0,0-8.44,6.56,16.12,16.12,0,0,0-4.78,10.22,15.29,15.29,0,0,1-1.43,5.07,50.67,50.67,0,0,1-3.23,5.51,27.65,27.65,0,0,0-1.63,2.8,8,8,0,0,0-.79,4.42c.12,1.13.1,2.3.16,3.44a6.37,6.37,0,0,1-.23,2.11,3.28,3.28,0,0,0-.89-.8,3.94,3.94,0,0,0,.08-.6,28.38,28.38,0,0,0-.11-3.8,9.64,9.64,0,0,1,.79-5.05c.5-1.07,1.1-2.06,1.69-3.06,1-1.69,2.08-3.31,3-5a13.58,13.58,0,0,0,1.76-5.65,13.43,13.43,0,0,1,.61-3.09,17.07,17.07,0,0,1,4-6.88c.52-.52,1.06-1,1.56-1.54a29.43,29.43,0,0,1,6.63-5.16c1.51-.9,3-2,4.45-3,.26-.17.53-.32.9-.54A2.35,2.35,0,0,1,451.16,333.9Z"/><path class="cls-1" d="M390.87,397.82v2.71c0,2.92,1.83,5.32,4.19,5.57l5.74,25.48a3.79,3.79,0,0,0,3.47,3.21h14a3.79,3.79,0,0,0,3.47-3.21l5.74-25.47c2.34-.24,4.19-2.65,4.19-5.58v-2.71Zm39.76,2.71c0,2.52-1.59,4.58-3.58,4.58h-.41l-5.91,26.24a2.8,2.8,0,0,1-2.48,2.42h-14a2.78,2.78,0,0,1-2.47-2.42l-5.69-25.22h20.76v-1H395.44c-2,0-3.55-2.06-3.55-4.58v-1.69h38.74Z"/><path class="cls-8" d="M341.14,130a5.33,5.33,0,0,0,4.3,2.19,17.42,17.42,0,0,0,4.94-.76.74.74,0,0,1,.51,0,.7.7,0,0,1,.28.33c.42.82.59,1.76,1,2.58a2.28,2.28,0,0,0,2.22,1.37,2.58,2.58,0,0,0,1.46-1.07,5.82,5.82,0,0,0,1.39-3.86,5.51,5.51,0,0,0-3.55-4.39,14.24,14.24,0,0,0-5.85-.78,11.21,11.21,0,0,0-3.16.38,4.23,4.23,0,0,0-2.48,1.87,6.39,6.39,0,0,0-.27,4"/><circle class="cls-1" cx="422.56" cy="125.16" r="18.16" transform="translate(203.03 507.3) rotate(-76.62)"/><path class="cls-1" d="M89.9,12.18a5.1,5.1,0,1,1-5.09-5.1A5.1,5.1,0,0,1,89.9,12.18Z"/><circle class="cls-1" cx="442.96" cy="149.62" r="7.42"/><circle class="cls-1" cx="102.27" cy="14.88" r="9.1"/><circle class="cls-1" cx="160.35" cy="347" r="9.1"/><circle class="cls-1" cx="173.21" cy="362.67" r="4.55"/></g></g></svg>