<svg xmlns="http://www.w3.org/2000/svg" viewBox="0 0 318.43 266.09"><defs><style>.cls-1{opacity:0.41;}.cls-2,.cls-4{fill:#c5d9ff;}.cls-3{opacity:0.88;}.cls-4{opacity:0.31;}.cls-5,.cls-9{fill:#af9cda;}.cls-11,.cls-6{fill:#243762;}.cls-7{fill:#fff;}.cls-12,.cls-8{fill:#ecf1f7;}.cls-9{opacity:0.33;}.cls-10{fill:#f7a9b4;}.cls-11{opacity:0.29;}.cls-12{opacity:0.35;}</style></defs><g id="Layer_2" data-name="Layer 2"><g id="OBJECTS"><g class="cls-1"><path class="cls-2" d="M318.27,169.82a91.21,91.21,0,0,0-.42-15.59c-2.75-24.31-15.22-47.23-33.58-63.4-6.54-5.77-14-10.94-18.26-18.55-7.17-12.83-6.63-27.57-15.53-40.23A75.27,75.27,0,0,0,213.91,4.41c-43.69-15.14-104.86,9.51-99.35,62.15q0,.28.06.81A19.16,19.16,0,0,1,95.85,87.76c-40.31.95-75,32-82.43,71.4-4.78,25.32,3,53.07,21.56,71,13.82,13.37,32.37,20.72,50.93,25.76,37.21,10.12,76.37,12.24,114.73,8.37,35.92-3.62,73.8-13.94,97-41.57A90.76,90.76,0,0,0,318.27,169.82Z"/></g><g class="cls-3"><path class="cls-2" d="M285.12,172.3a71.15,71.15,0,0,0-.33-12.21,79,79,0,0,0-26.3-49.67c-5.13-4.52-11-8.57-14.31-14.53-5.62-10-5.19-21.6-12.17-31.52a59,59,0,0,0-28.64-21.65c-34.23-11.86-82.15,7.45-77.83,48.69,0,.14,0,.36,0,.63a15,15,0,0,1-14.71,16c-31.58.75-58.76,25.1-64.58,55.94-3.74,19.83,2.39,41.57,16.9,55.61C74,230,88.56,235.78,103.09,239.74c29.15,7.92,59.83,9.59,89.88,6.55,28.14-2.83,57.81-10.92,76-32.57A71.12,71.12,0,0,0,285.12,172.3Z"/></g><circle class="cls-4" cx="299.76" cy="39.27" r="9.86" transform="translate(192.39 321.88) rotate(-76.66)"/><circle class="cls-4" cx="83.23" cy="27.83" r="11.43" transform="translate(4.7 67) rotate(-45)"/><circle class="cls-4" cx="14.76" cy="247.43" r="14.76"/><circle class="cls-5" cx="131.27" cy="78.6" r="52.33"/><path class="cls-6" d="M167.6,116.29a.49.49,0,0,1-.35-.15.5.5,0,0,1,0-.71A51.83,51.83,0,1,0,94,42.14a.5.5,0,0,1-.71-.71A52.83,52.83,0,1,1,168,116.14.47.47,0,0,1,167.6,116.29Z"/><circle class="cls-7" cx="131.27" cy="78.6" r="39.82"/><path class="cls-6" d="M131.27,118.92a40.32,40.32,0,1,1,0-80.64.5.5,0,0,1,0,1,39.32,39.32,0,1,0,0,78.64.51.51,0,0,1,.5.5A.5.5,0,0,1,131.27,118.92Z"/><path class="cls-6" d="M141.58,86.21H130.75a4,4,0,0,1-4-4v-15a3.5,3.5,0,0,1,7,0v12h7.86a3.5,3.5,0,0,1,0,7Z"/><path class="cls-6" d="M50,96.78l56.37,56.37a28.23,28.23,0,0,0,39.93,0l6.74-6.74a6.5,6.5,0,0,0,0-9.21l-23-23a6.52,6.52,0,0,0-9.21,0l-11.51,11.5a2.29,2.29,0,0,1-3.25,0L78.19,97.8a2.28,2.28,0,0,1,0-3.22L89.53,83.24a6.5,6.5,0,0,0,0-9.21L65.91,50.4a6.53,6.53,0,0,0-9.14-.08l-6.4,6.18A28.25,28.25,0,0,0,50,96.78Z"/><path class="cls-8" d="M51.79,57.64,83.46,89.31l1.09-1.08,5-5a6.5,6.5,0,0,0,0-9.21L65.91,50.4a6.53,6.53,0,0,0-9.14-.08l-6.4,6.18Z"/><path class="cls-6" d="M83.46,90l-32-32-1.83-1.47L56.43,50a7,7,0,0,1,9.83.09L89.89,73.67a7,7,0,0,1,0,9.92ZM51.13,56.47l1,.81L83.46,88.61l5.72-5.72a6,6,0,0,0,0-8.51L65.55,50.75a6,6,0,0,0-8.43-.07Z"/><path class="cls-8" d="M116.22,121l31.68,31.67,1.08-1.08,5-5a6.52,6.52,0,0,0,0-9.21l-23.63-23.63a6.51,6.51,0,0,0-9.13-.08l-6.4,6.18Z"/><path class="cls-6" d="M147.9,153.37l-32-32-1.84-1.47,6.81-6.58a7.06,7.06,0,0,1,9.84.09L154.32,137a7,7,0,0,1,0,9.93Zm-32.34-33.55,1,.81L147.9,152l5.72-5.72a6,6,0,0,0,0-8.51L130,114.1a6.05,6.05,0,0,0-8.43-.07Z"/><line class="cls-8" x1="54.21" y1="53.9" x2="73.51" y2="73.2"/><path class="cls-6" d="M73.51,73.7a.52.52,0,0,1-.35-.14l-19.3-19.3a.5.5,0,0,1,.71-.71l19.3,19.3a.51.51,0,0,1,0,.71A.54.54,0,0,1,73.51,73.7Z"/><line class="cls-8" x1="130.98" y1="130.67" x2="150.28" y2="149.98"/><path class="cls-6" d="M150.28,150.47a.49.49,0,0,1-.35-.14L130.63,131a.5.5,0,0,1,0-.71.51.51,0,0,1,.71,0l19.3,19.3a.51.51,0,0,1,0,.71A.5.5,0,0,1,150.28,150.47Z"/><path class="cls-6" d="M235,249.14l-73.9-10.93a15.3,15.3,0,0,1-12.89-17.37l26.5-179.18a15.3,15.3,0,0,1,17.37-12.9L266,39.69a15.3,15.3,0,0,1,12.89,17.37l-26.5,179.18A15.31,15.31,0,0,1,235,249.14Z"/><rect class="cls-8" x="128.3" y="90.51" width="171.05" height="92.75" transform="translate(47.13 328.38) rotate(-81.59)"/><rect class="cls-5" x="218.98" y="12.25" width="12.84" height="92.75" transform="translate(134.42 273.02) rotate(-81.59)"/><path class="cls-8" d="M199.76,238a5.3,5.3,0,0,1-.88-.07,5.95,5.95,0,1,1,.88.07Zm0-11a5,5,0,1,0,4.94,5.72,5,5,0,0,0-4.2-5.66A4.71,4.71,0,0,0,199.75,227Z"/><path class="cls-8" d="M213,43.88a1.33,1.33,0,0,1-.28,0,1.91,1.91,0,0,1-1.63-2.18,2,2,0,0,1,.76-1.27,1.91,1.91,0,0,1,1.43-.35,1.92,1.92,0,0,1,1.62,2.18h0A1.92,1.92,0,0,1,213,43.88ZM213,41a1,1,0,0,0-.92.79,1,1,0,0,0,.17.69,1,1,0,0,0,.61.37.94.94,0,0,0,.69-.18.86.86,0,0,0,.36-.6h0a.89.89,0,0,0-.17-.69.93.93,0,0,0-.61-.37Z"/><path class="cls-8" d="M242.82,48.28a1.46,1.46,0,0,1-.29,0l-23.4-3.46a1.93,1.93,0,0,1-1.27-.76,2,2,0,0,1-.36-1.43A1.93,1.93,0,0,1,219.69,41l23.41,3.46a1.92,1.92,0,0,1,1.26.76,1.88,1.88,0,0,1,.36,1.43A1.84,1.84,0,0,1,244,47.9,1.88,1.88,0,0,1,242.82,48.28ZM219.41,42a.93.93,0,0,0-.92.79,1,1,0,0,0,.18.69.9.9,0,0,0,.6.36l23.41,3.46a.91.91,0,0,0,1-.78.87.87,0,0,0-.17-.68.93.93,0,0,0-.61-.37L219.54,42Z"/><path class="cls-2" d="M247.56,176.5l-64-9.47a1.91,1.91,0,0,0-2.16,1.61l-2.46,16.6a1.91,1.91,0,0,0,1.61,2.17l54.72,8.09,5.63,7.78,1-6.79,2.64.39a1.92,1.92,0,0,0,2.17-1.61l2.45-16.61A1.89,1.89,0,0,0,247.56,176.5Z"/><path class="cls-6" d="M235.27,196h-.08l-54.72-8.1a2.42,2.42,0,0,1-1.58-.94,2.38,2.38,0,0,1-.44-1.79l2.45-16.6a2.4,2.4,0,0,1,2.74-2l14.79,2.19a.5.5,0,1,1-.15,1l-14.79-2.18a1.41,1.41,0,0,0-1.6,1.18l-2.46,16.61a1.39,1.39,0,0,0,.27,1,1.37,1.37,0,0,0,.92.55l54.72,8.1a.5.5,0,0,1-.07,1Z"/><path class="cls-2" d="M257.74,107.7l-64-9.47a1.92,1.92,0,0,0-2.17,1.61l-2.45,16.6a1.9,1.9,0,0,0,1.6,2.17l54.72,8.09,5.64,7.78,1-6.8,2.64.4a1.91,1.91,0,0,0,2.16-1.61l2.46-16.61A1.91,1.91,0,0,0,257.74,107.7Z"/><path class="cls-6" d="M251.4,135.76l-6.24-8.59-54.51-8.07a2.41,2.41,0,0,1-2-2.73.51.51,0,0,1,.57-.42.5.5,0,0,1,.42.57,1.4,1.4,0,0,0,1.19,1.59l54.92,8.13,5.05,7,.89-6.07,3.14.46a1.38,1.38,0,0,0,1-.26,1.4,1.4,0,0,0,.56-.93l1.63-11a.51.51,0,0,1,.57-.42.5.5,0,0,1,.42.57l-1.63,11a2.42,2.42,0,0,1-2.74,2l-2.14-.32Z"/><path class="cls-5" d="M176.73,129.09l64,9.47a1.91,1.91,0,0,1,1.61,2.16l-2.46,16.61a1.91,1.91,0,0,1-2.16,1.61L183,150.84l-7.65,5.81,1-6.79-2.65-.39a1.9,1.9,0,0,1-1.6-2.17l2.45-16.6A1.92,1.92,0,0,1,176.73,129.09Z"/><path class="cls-6" d="M238,159.46l-.36,0-34.15-5.05a.5.5,0,1,1,.14-1l34.16,5.05a1.43,1.43,0,0,0,1-.26,1.38,1.38,0,0,0,.56-.92l2.45-16.61a1.4,1.4,0,0,0-1.18-1.6.49.49,0,0,1-.42-.57.5.5,0,0,1,.56-.42,2.41,2.41,0,0,1,2,2.74l-2.45,16.6a2.39,2.39,0,0,1-.95,1.58A2.41,2.41,0,0,1,238,159.46Z"/><rect class="cls-7" x="194.59" y="167.33" width="15.74" height="92.75" transform="translate(-38.56 382.72) rotate(-81.59)"/><path class="cls-2" d="M171.28,209a5.58,5.58,0,1,1-4.7-6.34A5.58,5.58,0,0,1,171.28,209Z"/><path class="cls-9" d="M239,224.07a4.6,4.6,0,0,1-.74,0l-59.45-8.8a4.9,4.9,0,0,1-3.27-1.95,5,5,0,0,1,4.72-7.89l59.46,8.8a5,5,0,0,1-.72,9.89Zm-.59-1a4,4,0,1,0,1.16-7.87l-59.46-8.79a4,4,0,0,0-3.77,6.3,3.93,3.93,0,0,0,2.61,1.56Z"/><path class="cls-7" d="M186.17,54.62l-.28,0a2,2,0,0,1-.89-3.51,2,2,0,0,1,1.46-.37A2,2,0,0,1,188.11,53h0A2,2,0,0,1,186.17,54.62Zm0-2.92a1,1,0,0,0-.77,1.53,1,1,0,0,0,1.72-.43h0a1,1,0,0,0-.18-.71.93.93,0,0,0-.63-.38Z"/><path class="cls-7" d="M191.59,55.42l-.29,0a2,2,0,1,1,1.45-.37A1.91,1.91,0,0,1,191.59,55.42Zm0-2.92a1,1,0,0,0-.94.82.94.94,0,0,0,.17.71,1,1,0,0,0,.63.38.94.94,0,0,0,.71-.18,1,1,0,0,0,.38-.63h0a1,1,0,0,0-.18-.71.93.93,0,0,0-.63-.38Z"/><path class="cls-7" d="M196.89,56.2a1.32,1.32,0,0,1-.28,0,2,2,0,1,1,.28,0Zm0-2.91a.93.93,0,0,0-.57.19.92.92,0,0,0-.37.63,1,1,0,0,0,.17.71A1,1,0,1,0,197,53.3Z"/><path class="cls-6" d="M271.58,72.44h-.07L186.58,59.88a.51.51,0,0,1-.42-.57.5.5,0,0,1,.56-.42l84.93,12.56a.5.5,0,0,1-.07,1Z"/><path class="cls-7" d="M236.17,180.32h-.07l-45.31-6.7a.51.51,0,0,1-.43-.57.5.5,0,0,1,.57-.42l45.32,6.7a.5.5,0,0,1,.42.57A.51.51,0,0,1,236.17,180.32Z"/><path class="cls-7" d="M209.35,181.88h-.08L190,179a.5.5,0,0,1,.14-1l19.29,2.86a.5.5,0,0,1,.42.56A.5.5,0,0,1,209.35,181.88Z"/><path class="cls-7" d="M202.85,186.09h-.08l-13.53-2a.5.5,0,1,1,.15-1l13.53,2a.51.51,0,0,1,.42.57A.5.5,0,0,1,202.85,186.09Z"/><path class="cls-7" d="M235.37,185.73h-.07l-19.93-2.94a.51.51,0,0,1-.42-.57.49.49,0,0,1,.57-.42l19.93,2.94a.5.5,0,0,1-.08,1Z"/><path class="cls-7" d="M230.64,142.72h-.07L185.25,136a.5.5,0,0,1,.15-1l45.31,6.71a.5.5,0,0,1,.43.56A.51.51,0,0,1,230.64,142.72Z"/><path class="cls-7" d="M203.81,144.28h-.07l-19.29-2.85a.5.5,0,0,1,.15-1l19.29,2.85a.5.5,0,0,1-.08,1Z"/><path class="cls-7" d="M223.85,152.41h-.07l-39.11-6.07a.5.5,0,0,1,.15-1l39.11,6.07a.5.5,0,0,1-.08,1Z"/><path class="cls-7" d="M229.84,148.13h-.07l-19.93-3a.5.5,0,0,1-.43-.57.51.51,0,0,1,.57-.42l19.93,2.95a.5.5,0,0,1-.07,1Z"/><path class="cls-5" d="M185,66.67l64,9.47a1.91,1.91,0,0,1,1.61,2.16L248.1,94.91a1.91,1.91,0,0,1-2.16,1.61l-54.72-8.1-7.65,5.81,1-6.79-2.65-.39a1.9,1.9,0,0,1-1.6-2.17l2.45-16.6A1.92,1.92,0,0,1,185,66.67Z"/><path class="cls-6" d="M248.1,95.41H248a.5.5,0,0,1-.42-.56l2.45-16.61a1.34,1.34,0,0,0-.26-1,1.38,1.38,0,0,0-.92-.56l-39.74-5.87a.51.51,0,0,1-.42-.57.5.5,0,0,1,.57-.42L249,75.64a2.39,2.39,0,0,1,1.58,1,2.35,2.35,0,0,1,.45,1.79L248.6,95A.51.51,0,0,1,248.1,95.41Z"/><path class="cls-7" d="M238.86,80.3h-.07l-45.32-6.71a.5.5,0,0,1-.42-.57.51.51,0,0,1,.57-.42l45.31,6.71a.48.48,0,0,1,.42.56A.5.5,0,0,1,238.86,80.3Z"/><path class="cls-7" d="M212,81.86H212L192.67,79a.5.5,0,1,1,.15-1l19.29,2.85a.5.5,0,0,1-.08,1Z"/><path class="cls-7" d="M232.07,90H232l-39.11-6.07a.51.51,0,0,1-.42-.57.5.5,0,0,1,.57-.42L232.15,89a.51.51,0,0,1,.42.57A.5.5,0,0,1,232.07,90Z"/><path class="cls-7" d="M238.06,85.71H238l-19.93-3a.5.5,0,1,1,.14-1l19.93,2.95a.5.5,0,0,1-.07,1Z"/><path class="cls-7" d="M246.39,112.16h-.07L201,105.45a.5.5,0,0,1,.15-1l45.31,6.7a.5.5,0,0,1-.07,1Z"/><path class="cls-7" d="M219.56,113.71h-.07l-19.29-2.85a.51.51,0,0,1-.42-.57.5.5,0,0,1,.57-.42l19.29,2.85a.5.5,0,0,1-.08,1Z"/><path class="cls-7" d="M213.06,117.92H213l-13.54-2a.5.5,0,1,1,.15-1l13.54,2a.5.5,0,0,1-.08,1Z"/><path class="cls-7" d="M245.59,117.56h-.07l-19.93-3a.5.5,0,1,1,.14-1l19.93,2.95a.5.5,0,0,1-.07,1Z"/><path class="cls-10" d="M154.25,233.77,51.59,245.33a3.58,3.58,0,0,1-4-3.16L40.21,176.4a.19.19,0,0,1,.17-.21l109.39-12.32a.18.18,0,0,1,.21.16l7.41,65.79A3.56,3.56,0,0,1,154.25,233.77Z"/><path class="cls-6" d="M51.19,245.86a4.11,4.11,0,0,1-4.07-3.64l-7.41-65.76a.69.69,0,0,1,.61-.76l109.4-12.33a.69.69,0,0,1,.76.61l7.41,65.79a4.05,4.05,0,0,1-3.59,4.49L51.65,245.83ZM40.74,176.65l7.38,65.46a3.1,3.1,0,0,0,3.42,2.73l102.65-11.57.06.5-.06-.5a3,3,0,0,0,2.06-1.13,3.09,3.09,0,0,0,.65-2.26l-7.38-65.48Z"/><path class="cls-11" d="M149.44,233.77,56.61,245.33c-2,.23,28.77-39.2,28.55-41.17L40.21,176.4a.19.19,0,0,1,.17-.21l109.39-12.32a.18.18,0,0,1,.21.16l-37.42,37C112.78,203,151.4,233.55,149.44,233.77Z"/><path class="cls-10" d="M40.38,176.19l45.24-44.74a8.21,8.21,0,0,1,10.1-1.15l53.77,33.39a.11.11,0,0,1,0,.21L40.19,176.21"/><path class="cls-6" d="M40.25,176.71l-.09-.74-.13-.13.11-.11h0L85.26,131.1A8.71,8.71,0,0,1,96,129.87l53.77,33.4a.61.61,0,0,1,.27.65.59.59,0,0,1-.52.48ZM91.4,129.56A7.7,7.7,0,0,0,86,131.81L41.75,175.53l106.54-12L95.46,130.72A7.8,7.8,0,0,0,91.4,129.56Z"/><path class="cls-11" d="M40.38,176.19l45.24-44.74a8.21,8.21,0,0,1,10.1-1.15l53.77,33.39a.11.11,0,0,1,0,.21L40.19,176.21"/><path class="cls-10" d="M90.62,197.26l-34,47.32,92.83-10.46-43.68-38.56A10.28,10.28,0,0,0,90.62,197.26Z"/><path class="cls-6" d="M55.55,245.2,90.21,197l.41.29-.41-.29a10.77,10.77,0,0,1,15.88-1.79l44.52,39.31ZM99,193.49A9.74,9.74,0,0,0,91,197.56L57.68,244l90.58-10.2-42.83-37.82A9.83,9.83,0,0,0,99,193.49Z"/><path class="cls-7" d="M45.9,143.78l71.5-8.05c4.69-.53,8.86,2.34,9.32,6.41l4.59,40.78L111.43,201.2l-26.27,3-26-16.23-4.45-39.52Z"/><path class="cls-6" d="M85,204.68,58.73,188.22l-4.45-39.49-6.81-5.63,69.88-7.87a9.67,9.67,0,0,1,6.58,1.57,7.36,7.36,0,0,1,3.28,5.28l4.63,41-20.19,18.56ZM59.67,187.63l25.6,16,25.94-2.92,19.58-18-4.57-40.54a6.4,6.4,0,0,0-2.86-4.57,8.69,8.69,0,0,0-5.9-1.4L47.58,144.1l7.64,4Z"/><path class="cls-11" d="M90.62,193.18l-34,51.4,92.83-10.46-43.68-42.64A10.27,10.27,0,0,0,90.62,193.18Z"/><path class="cls-10" d="M90.62,197.26l-34,47.32,92.83-10.46-43.68-38.56A10.28,10.28,0,0,0,90.62,197.26Z"/><path class="cls-6" d="M55.55,245.2,90.21,197l.41.29-.41-.29a10.77,10.77,0,0,1,15.88-1.79l44.52,39.31ZM99,193.49A9.74,9.74,0,0,0,91,197.56L57.68,244l90.58-10.2-42.83-37.82A9.83,9.83,0,0,0,99,193.49Z"/><path class="cls-12" d="M93.91,207.74l-25,34.74,68.17-7.68L105,206.48A7.55,7.55,0,0,0,93.91,207.74Z"/><line class="cls-10" x1="40.42" y1="176.28" x2="85.16" y2="204.16"/><rect class="cls-6" x="62.29" y="163.87" width="1" height="52.71" transform="translate(-131.86 142.91) rotate(-58.07)"/><line class="cls-10" x1="149.97" y1="163.94" x2="112.56" y2="201.07"/><rect class="cls-6" x="104.91" y="182.01" width="52.71" height="1" transform="translate(-90.48 145.5) rotate(-44.8)"/><path class="cls-8" d="M56.73,166.62,44.25,168l-2-17.81a6,6,0,0,1,5.28-6.62l.57-.07a6,6,0,0,1,6.62,5.29Z"/><path class="cls-6" d="M43.81,168.58l-2.06-18.3a6.5,6.5,0,0,1,5.72-7.18L48,143a6.48,6.48,0,0,1,7.18,5.72l2.06,18.3Zm5-24.58q-.31,0-.63,0l-.56.06a5.51,5.51,0,0,0-4.85,6.08l1.95,17.3,11.49-1.29-2-17.31a5.51,5.51,0,0,0-2-3.68A5.44,5.44,0,0,0,48.78,144Z"/><path class="cls-6" d="M65.2,157.35a.5.5,0,0,1-.49-.44.49.49,0,0,1,.44-.55l51.8-5.84a.5.5,0,1,1,.12,1l-51.81,5.84Z"/><path class="cls-6" d="M67.19,175a.5.5,0,0,1-.06-1l51.81-5.84a.5.5,0,0,1,.55.44.51.51,0,0,1-.44.56L67.24,175Z"/><path class="cls-6" d="M66.18,166.06a.5.5,0,0,1-.05-1l22.38-2.52a.5.5,0,1,1,.12,1l-22.39,2.52Z"/><path class="cls-6" d="M94.43,162.87a.49.49,0,0,1-.49-.44.48.48,0,0,1,.44-.55l23.55-2.66a.51.51,0,0,1,.56.44.51.51,0,0,1-.44.56l-23.56,2.65Z"/><path class="cls-6" d="M68.31,185a.5.5,0,0,1-.49-.44.5.5,0,0,1,.44-.56l22.38-2.52a.51.51,0,0,1,.56.44.51.51,0,0,1-.44.56L68.37,185Z"/></g></g></svg>